<svg width="341" height="76" viewBox="0 0 341 76" fill="none" xmlns="http://www.w3.org/2000/svg">
<path d="M332.939 0L314.37 39.9781L307.388 24.8301H299.836L311.319 49.6082H317.422L340.438 0H332.939Z" fill="#D52B1E"/>
<path d="M253.286 74.2301H268.234V46.6931C268.234 40.3945 271.854 35.9698 277.233 35.9698C282.406 35.9698 285.095 39.6137 285.095 44.8712V74.2301H300.043V42.0082C300.043 31.0767 293.526 23.3726 282.974 23.3726C276.251 23.3726 271.544 26.2877 268.027 31.5972H267.716V24.8301H253.234L253.286 74.2301ZM223.907 23.4767C208.287 23.4767 197.839 34.7726 197.839 49.6603C197.839 64.4438 208.287 75.8438 223.907 75.8438C239.527 75.8438 249.975 64.4438 249.975 49.6603C250.027 34.7726 239.527 23.4767 223.907 23.4767ZM223.804 64.7041C216.718 64.7041 212.942 58.7178 212.942 49.6603C212.942 40.4986 216.666 34.6164 223.804 34.6164C230.89 34.6164 234.821 40.4986 234.821 49.6603C234.872 58.7178 230.942 64.7041 223.804 64.7041ZM155.22 74.2301H197.218V62.3616H173.426V62.0493L196.184 36.3863V24.7781H155.22V36.6986H178.236V37.0109L155.22 62.8822V74.2301ZM136.03 74.2301H151.082V24.8301H136.03V74.2301ZM101.118 74.2301H116.117V51.5342C116.117 41.2274 122.272 36.6466 131.634 37.9479H131.944V24.9342C131.169 24.6219 130.289 24.5698 128.893 24.5698C123.048 24.5698 119.117 27.2767 115.755 33.0548H115.445V24.8301H101.118V74.2301ZM73.6013 64.7561C66.9808 64.7561 62.9464 60.4356 62.1706 53.7726H97.5489C97.6523 43.1534 94.8593 34.6685 89.0146 29.3589C84.8768 25.5068 79.4459 23.3726 72.5151 23.3726C57.7224 23.3726 47.4814 34.6685 47.4814 49.452C47.4814 64.3397 57.2569 75.6877 73.4978 75.6877C79.6528 75.6877 84.5148 74.0219 88.5491 71.263C92.8421 68.2959 95.9455 63.9233 96.773 59.6027H82.3941C80.9976 62.8301 77.9977 64.7561 73.6013 64.7561ZM72.8254 34.1479C78.1012 34.1479 81.7217 38.1041 82.3424 43.8822H62.274C63.4637 38.052 66.6187 34.1479 72.8254 34.1479ZM17.5857 74.2301H33.3094L50.3778 24.8301H35.3265L25.7579 56.5835H25.551L15.9823 24.8301H0.517212L17.5857 74.2301ZM136.03 7.2356H151.082V20.6657H136.03V7.2356Z" fill="black"/>
</svg>
