<svg width="24" height="24" viewBox="0 0 24 24" fill="none" xmlns="http://www.w3.org/2000/svg">
<path fill-rule="evenodd" clip-rule="evenodd" d="M12 18C14.28 18 16.31 16.91 17.59 15.21L22.43 20.05L21.02 21.46L17.6 18.04C16.07 19.27 14.12 20 12 20C7.03 20 3 15.97 3 11C3 6.03 7.03 2 12 2C16.97 2 21 6.03 21 11C21 12.4 20.68 13.72 20.12 14.91L18.59 13.38C18.85 12.64 19 11.83 19 11C19 7.13 15.87 4 12 4C8.13 4 5 7.13 5 11C5 14.87 8.13 18 12 18ZM12 8C10.34 8 9 9.34 9 11H7C7 8.24 9.24 6 12 6V8Z" fill="#35363E"/>
</svg>
