<svg width="24" height="24" viewBox="0 0 24 24" fill="none" xmlns="http://www.w3.org/2000/svg">
<path fill-rule="evenodd" clip-rule="evenodd" d="M9.02 4H22L19.2 12H9.44L9.74 13H19V15H8.26L5.26 5H2V3H6.74L8.84 10H17.85L19.05 6H9.72L9.02 4ZM10.5 16C10.0055 16 9.5222 16.1466 9.11107 16.4213C8.69995 16.696 8.37952 17.0865 8.1903 17.5433C8.00108 18.0001 7.95157 18.5028 8.04804 18.9877C8.1445 19.4727 8.3826 19.9181 8.73223 20.2678C9.08186 20.6174 9.52732 20.8555 10.0123 20.952C10.4972 21.0484 10.9999 20.9989 11.4567 20.8097C11.9135 20.6205 12.304 20.3 12.5787 19.8889C12.8534 19.4778 13 18.9945 13 18.5C13 17.837 12.7366 17.2011 12.2678 16.7322C11.7989 16.2634 11.163 16 10.5 16ZM10.5 19C10.4011 19 10.3044 18.9707 10.2222 18.9157C10.14 18.8608 10.0759 18.7827 10.0381 18.6913C10.0002 18.6 9.99031 18.4994 10.0096 18.4025C10.0289 18.3055 10.0765 18.2164 10.1464 18.1464C10.2164 18.0765 10.3055 18.0289 10.4025 18.0096C10.4994 17.9903 10.6 18.0002 10.6913 18.0381C10.7827 18.0759 10.8608 18.14 10.9157 18.2222C10.9707 18.3044 11 18.4011 11 18.5C11 18.6326 10.9473 18.7598 10.8536 18.8536C10.7598 18.9473 10.6326 19 10.5 19ZM16.5 16C16.0055 16 15.5222 16.1466 15.1111 16.4213C14.7 16.696 14.3795 17.0865 14.1903 17.5433C14.0011 18.0001 13.9516 18.5028 14.048 18.9877C14.1445 19.4727 14.3826 19.9181 14.7322 20.2678C15.0819 20.6174 15.5273 20.8555 16.0123 20.952C16.4972 21.0484 16.9999 20.9989 17.4567 20.8097C17.9135 20.6205 18.304 20.3 18.5787 19.8889C18.8534 19.4778 19 18.9945 19 18.5C19 17.837 18.7366 17.2011 18.2678 16.7322C17.7989 16.2634 17.163 16 16.5 16ZM16.5 19C16.4011 19 16.3044 18.9707 16.2222 18.9157C16.14 18.8608 16.0759 18.7827 16.0381 18.6913C16.0002 18.6 15.9903 18.4994 16.0096 18.4025C16.0289 18.3055 16.0765 18.2164 16.1464 18.1464C16.2164 18.0765 16.3055 18.0289 16.4025 18.0096C16.4994 17.9903 16.6 18.0002 16.6913 18.0381C16.7827 18.0759 16.8608 18.14 16.9157 18.2222C16.9707 18.3044 17 18.4011 17 18.5C17 18.6326 16.9473 18.7598 16.8536 18.8536C16.7598 18.9473 16.6326 19 16.5 19Z" fill="#35363E"/>
</svg>
